<svg width="900" height="900" viewBox="0 0 900 900" fill="none" xmlns="http://www.w3.org/2000/svg">
  <rect width="900" height="900" fill="none"/>
  <ellipse cx="474" cy="734" rx="260" ry="38" fill="#1B1B1B" opacity=".18"/>
  <path d="M437 77c101 0 182 81 182 181s-81 182-182 182-181-82-181-182S337 77 437 77Zm0 82c-55 0-99 44-99 99s44 100 99 100 100-45 100-100-45-99-100-99Z" fill="#E8EEF1" stroke="#202020" stroke-width="18"/>
  <path d="M457 427c58 20 119 48 164 87 43 37 69 83 61 139-9 66-67 111-151 126-91 17-211-2-319-65-64-37-91-92-74-143 18-54 83-98 167-122 45-13 99-21 152-22Z" fill="#F6F8F5" stroke="#202020" stroke-width="18"/>
  <path d="M244 587c91-34 263-37 356 47" stroke="#9EABB2" stroke-width="16" stroke-linecap="round"/>
  <path d="M317 650c58-11 134-7 188 19" stroke="#202020" stroke-width="14" stroke-linecap="round"/>
  <rect x="243" y="512" width="262" height="98" rx="18" transform="rotate(-8 243 512)" fill="#FFE430" stroke="#202020" stroke-width="14"/>
  <text x="279" y="568" fill="#202020" font-family="Impact, sans-serif" font-size="42" letter-spacing="2">H-001</text>
</svg>
