<svg width="760" height="960" viewBox="0 0 760 960" fill="none" xmlns="http://www.w3.org/2000/svg">
  <rect width="760" height="960" fill="none"/>
  <ellipse cx="392" cy="856" rx="228" ry="39" fill="#1B1B1B" opacity=".17"/>
  <path d="M197 90h330c24 0 46 13 58 34l82 144c12 21 12 47 0 68L457 699c-24 42-85 42-109 0L98 266c-12-21-12-47 0-68l40-69c12-24 35-39 59-39Z" fill="#F8FAF7" stroke="#202020" stroke-width="18"/>
  <circle cx="380" cy="206" r="55" fill="#DDE7EC" stroke="#202020" stroke-width="16"/>
  <path d="M281 380h215M251 454h275M304 528h168" stroke="#202020" stroke-width="16" stroke-linecap="round"/>
  <rect x="201" y="595" width="349" height="102" rx="14" fill="#FFE430" stroke="#202020" stroke-width="14"/>
  <text x="250" y="660" fill="#202020" font-family="Impact, sans-serif" font-size="48" letter-spacing="2">PROFILE</text>
</svg>
